HIERARCHY
ROOT hip
{
  OFFSET 0 0 0
  CHANNELS 6 Xposition Yposition Zposition Zrotation Yrotation Xrotation
  JOINT abdomen
  {
    OFFSET 0 20.6881 -0.73152
    CHANNELS 3 Zrotation Xrotation Yrotation
    JOINT chest
    {
      OFFSET 0 11.7043 -0.48768
      CHANNELS 3 Zrotation Xrotation Yrotation
      JOINT neck
      {
        OFFSET 0 22.1894 -2.19456
        CHANNELS 3 Zrotation Xrotation Yrotation
        JOINT head
        {
          OFFSET -0.24384 7.07133 1.2192
          CHANNELS 3 Zrotation Xrotation Yrotation
          JOINT leftEye
          {
            OFFSET 4.14528 8.04674 8.04672
            CHANNELS 3 Zrotation Xrotation Yrotation
            End Site
            {
              OFFSET 1 0 0
            }
          }
          JOINT rightEye
          {
            OFFSET -3.6576 8.04674 8.04672
            CHANNELS 3 Zrotation Xrotation Yrotation
            End Site
            {
              OFFSET 1 0 0
            }
          }
        }
      }
      JOINT rCollar
      {
        OFFSET -2.68224 19.2634 -4.8768
        CHANNELS 3 Zrotation Xrotation Yrotation
        JOINT rShldr
        {
          OFFSET -8.77824 -1.95073 1.46304
          CHANNELS 3 Zrotation Xrotation Yrotation
          JOINT rForeArm
          {
            OFFSET -28.1742 -1.7115 0.48768
            CHANNELS 3 Zrotation Xrotation Yrotation
            JOINT rHand
            {
              OFFSET -22.5879 0.773209 7.07136
              CHANNELS 3 Zrotation Xrotation Yrotation
              JOINT rThumb1
              {
                OFFSET -1.2192 -0.487915 3.41376
                CHANNELS 3 Zrotation Xrotation Yrotation
                JOINT rThumb2
                {
                  OFFSET -3.37035 -0.52449 3.41376
                  CHANNELS 3 Zrotation Xrotation Yrotation
                  End Site
                  {
                    OFFSET -1.78271 -1.18214 1.43049
                  }
                }
              }
              JOINT rIndex1
              {
                OFFSET -7.75947 0.938293 5.60832
                CHANNELS 3 Zrotation Xrotation Yrotation
                JOINT rIndex2
                {
                  OFFSET -2.54057 -0.884171 1.56538
                  CHANNELS 3 Zrotation Xrotation Yrotation
                  End Site
                  {
                    OFFSET -1.62519 -0.234802 1.16502
                  }
                }
              }
              JOINT rMid1
              {
                OFFSET -8.24714 1.18213 3.41376
                CHANNELS 3 Zrotation Xrotation Yrotation
                JOINT rMid2
                {
                  OFFSET -3.10165 -0.590103 1.0647
                  CHANNELS 3 Zrotation Xrotation Yrotation
                  End Site
                  {
                    OFFSET -2.48547 -0.328903 0.83742
                  }
                }
              }
              JOINT rRing1
              {
                OFFSET -8.82822 0.546677 1.51678
                CHANNELS 3 Zrotation Xrotation Yrotation
                JOINT rRing2
                {
                  OFFSET -2.60934 -0.819778 -0.0198488
                  CHANNELS 3 Zrotation Xrotation Yrotation
                  End Site
                  {
                    OFFSET -2.33842 -0.294052 0.168128
                  }
                }
              }
              JOINT rPinky1
              {
                OFFSET -8.27202 -0.0477905 -0.4584
                CHANNELS 3 Zrotation Xrotation Yrotation
                JOINT rPinky2
                {
                  OFFSET -1.82734 -0.647385 -0.700984
                  CHANNELS 3 Zrotation Xrotation Yrotation
                  End Site
                  {
                    OFFSET -1.69225 -0.51767 -0.607171
                  }
                }
              }
            }
          }
        }
      }
      JOINT lCollar
      {
        OFFSET 2.68224 19.2634 -4.8768
        CHANNELS 3 Zrotation Xrotation Yrotation
        JOINT lShldr
        {
          OFFSET 8.77824 -1.95073 1.46304
          CHANNELS 3 Zrotation Xrotation Yrotation
          JOINT lForeArm
          {
            OFFSET 28.1742 -1.7115 0.48768
            CHANNELS 3 Zrotation Xrotation Yrotation
            JOINT lHand
            {
              OFFSET 22.5879 0.773209 7.07136
              CHANNELS 3 Zrotation Xrotation Yrotation
              JOINT lThumb1
              {
                OFFSET 1.2192 -0.487915 3.41376
                CHANNELS 3 Zrotation Xrotation Yrotation
                JOINT lThumb2
                {
                  OFFSET 3.37035 -0.52449 3.41376
                  CHANNELS 3 Zrotation Xrotation Yrotation
                  End Site
                  {
                    OFFSET 1.78271 -1.18214 1.43049
                  }
                }
              }
              JOINT lIndex1
              {
                OFFSET 7.75947 0.938293 5.60832
                CHANNELS 3 Zrotation Xrotation Yrotation
                JOINT lIndex2
                {
                  OFFSET 2.54057 -0.884171 1.56538
                  CHANNELS 3 Zrotation Xrotation Yrotation
                  End Site
                  {
                    OFFSET 1.62519 -0.234802 1.16502
                  }
                }
              }
              JOINT lMid1
              {
                OFFSET 8.24714 1.18213 3.41376
                CHANNELS 3 Zrotation Xrotation Yrotation
                JOINT lMid2
                {
                  OFFSET 3.10165 -0.590103 1.0647
                  CHANNELS 3 Zrotation Xrotation Yrotation
                  End Site
                  {
                    OFFSET 2.48547 -0.328903 0.83742
                  }
                }
              }
              JOINT lRing1
              {
                OFFSET 8.82822 0.546677 1.51678
                CHANNELS 3 Zrotation Xrotation Yrotation
                JOINT lRing2
                {
                  OFFSET 2.60934 -0.819778 -0.0198488
                  CHANNELS 3 Zrotation Xrotation Yrotation
                  End Site
                  {
                    OFFSET 2.33842 -0.294052 0.168128
                  }
                }
              }
              JOINT lPinky1
              {
                OFFSET 8.27202 -0.0477905 -0.4584
                CHANNELS 3 Zrotation Xrotation Yrotation
                JOINT lPinky2
                {
                  OFFSET 1.82734 -0.647385 -0.700984
                  CHANNELS 3 Zrotation Xrotation Yrotation
                  End Site
                  {
                    OFFSET 1.69225 -0.51767 -0.607171
                  }
                }
              }
            }
          }
        }
      }
    }
  }
  JOINT rButtock
  {
    OFFSET -8.77824 4.35084 1.2192
    CHANNELS 3 Zrotation Xrotation Yrotation
    JOINT rThigh
    {
      OFFSET 0 -1.70687 -2.19456
      CHANNELS 3 Zrotation Xrotation Yrotation
      JOINT rShin
      {
        OFFSET 0 -36.8199 0.73152
        CHANNELS 3 Zrotation Xrotation Yrotation
        JOINT rFoot
        {
          OFFSET 0.73152 -45.1104 -5.12064
          CHANNELS 3 Zrotation Xrotation Yrotation
          End Site
          {
            OFFSET -1.1221 -3.69964 12.103
          }
        }
      }
    }
  }
  JOINT lButtock
  {
    OFFSET 8.77824 4.35084 1.2192
    CHANNELS 3 Zrotation Xrotation Yrotation
    JOINT lThigh
    {
      OFFSET 0 -1.70687 -2.19456
      CHANNELS 3 Zrotation Xrotation Yrotation
      JOINT lShin
      {
        OFFSET 0 -36.8199 0.73152
        CHANNELS 3 Zrotation Xrotation Yrotation
        JOINT lFoot
        {
          OFFSET -0.73152 -45.1104 -5.12064
          CHANNELS 3 Zrotation Xrotation Yrotation
          End Site
          {
            OFFSET 1.1221 -3.69964 12.103
          }
        }
      }
    }
  }
}
MOTION
Frames:	4
Frame Time:	0.03333
7.4136 56.745599999999996 5.6387 14.469956 59.273362 19.668841 -11.228257 8.21632 -140.593194 0.386989 6.81175 136.592269 -0.865019 15.528129 20.813557 -13.248045 -31.288305 -50.878124 -0.004631 0.0 -0.002581 0.001603 0.0 0.001504 1.180913 -7.762562 -1.644293 46.331542 21.783928 -2.058884 175.078279 23.7825 62.460351 172.891739 -13.677179 143.919839 -18.779978 16.844438 5.585743 47.849948 -52.093149 -4.463612 -78.838905 42.928573 65.592167 -166.725245 -14.118146 114.119029 -168.009341 -29.969106 145.32745 -169.422161 -23.019955 143.931356 -145.121266 1.998509 -179.756779 11.662714 26.611575 -5.963561 2.837519 7.921857 2.591991 -5.630975 -18.369863 -7.097301 144.847715 35.781658 -149.39777 70.413709 29.530733 -17.259577 -3.653134 -7.883805 128.555146 176.617246 -3.97823 -142.900834 27.289766 22.900755 -9.586847 125.612215 -25.374086 -100.951232 30.381839 32.540162 -22.586364 168.872948 -18.813021 -110.932185 -157.867894 -75.16489 -124.987964 -71.519043 -76.896533 -43.756888 144.625589 -11.946548 175.304721 -13.022399 41.219963 4.173277 146.104208 15.065081 142.641029 18.357383 -33.959939 20.066654 -179.9992 75.748781 -0.000696 152.050612 -1.781457 -129.340891 -86.600509 -24.057316 -156.913014 -115.162065 -22.773724 165.193869 -179.999416 75.748781 -0.000528 -155.292346 72.743758 110.948003 42.309505 -26.304189 162.708707 -113.391901 82.577245 -145.54651
7.9888 56.9257 6.2874 15.101741 58.335847 20.580816 -10.299665 9.426517 -91.231653 7.476194 3.080936 85.989498 -13.050284 22.527769 -63.295587 41.87349 -6.862081 41.468704 -0.002849 0.0 -0.002455 0.002811 -0.0 -0.003321 -114.673362 62.977374 118.196373 139.878732 -38.201363 115.907993 88.679789 15.021236 67.140294 -140.359423 66.081505 117.644209 -160.65051 1.629821 88.989297 -7.052668 -44.201823 12.294617 -119.522005 26.652489 100.997627 166.960248 -51.973232 106.39571 1.249138 -3.713806 -0.66464 6.059917 -8.662806 -0.957035 -0.339509 -9.763164 -3.107465 -0.291606 55.305786 13.509108 5.496349 16.317783 4.944446 -169.320766 74.700772 -146.989956 154.268619 3.857991 -160.194577 -135.275384 -10.556754 160.363028 -176.330726 4.629225 -49.604366 174.668186 2.900106 -142.167027 -9.565383 -9.556286 0.680143 -36.708068 -75.916315 23.869995 150.464849 -15.513783 -120.834395 31.91466 49.942992 -19.020496 152.94535 14.512079 -138.598313 167.807235 -18.724953 -143.883948 145.123009 1.179836 179.499839 -11.215924 61.733599 1.039429 -19.318899 66.916013 -13.088463 148.632379 12.452461 143.1693 179.960537 75.750224 0.029426 152.866255 -0.929435 -88.577315 -78.110395 7.431171 78.105438 -172.490226 -27.525868 22.120324 -179.992305 75.748462 -0.006895 -153.620925 76.033507 8.435151 22.089482 37.940981 -99.009122 178.619438 38.501644 -91.155679
8.5877 57.061099999999996 7.043099999999999 15.391713 57.174436 20.974832 -11.191433 6.758692 -155.509275 -1.35354 6.806452 149.586594 -12.282034 28.764774 -103.584021 44.807889 19.568448 73.452433 0.001034 0.0 0.000487 0.001034 0.0 0.000487 -9.436572 34.364273 10.966283 35.789432 23.100524 25.723327 -133.638606 47.976478 25.931035 156.412868 -47.272305 134.741806 -169.054643 -6.736605 89.912393 10.533285 -57.690824 14.430808 0.642333 -1.05094 -0.359999 -167.157174 -21.688822 109.50656 -160.765308 -6.950501 143.287695 -3.582906 17.852025 3.842635 -0.004944 -0.486735 -0.153794 -129.343132 -84.230033 -151.466847 23.518328 75.990942 12.132384 -39.683011 -48.502165 -39.169849 -3.684461 -32.341253 6.26425 92.940879 -0.319404 -174.343212 -5.711894 36.22141 130.507377 176.264512 -2.071699 -142.737419 51.718553 34.374308 -24.180421 159.067082 -46.149968 -89.107982 -149.724417 -72.643576 -94.225882 -15.68017 1.037578 7.339575 165.335183 -21.529675 -144.91288 23.419256 47.181049 -19.235349 145.112719 -0.360381 179.014887 -10.730578 66.036351 -0.048937 165.744559 77.754354 149.542022 152.557274 24.826155 145.019653 -0.001797 0.000566 -0.001061 -64.249804 -60.847716 -154.516353 -77.817951 3.64038 99.891382 -39.55368 13.881683 -14.876379 0.002629 -0.000443 0.001017 6.814749 1.842187 -114.965294 -41.626215 -25.81309 6.957226 -12.08297 51.522277 139.22753
9.1158 57.128299999999996 7.8568 14.735416 55.873581 20.35817 -12.010538 6.350919 153.988435 -7.888778 2.723595 -160.782699 -13.035274 27.087214 -97.042717 44.651032 15.449966 71.121356 0.000104 0.0 3.9e-05 0.000104 0.0 3.9e-05 -142.436222 40.383185 146.817447 108.252939 -48.077471 111.284984 -26.656295 -40.457473 64.078887 -1.27163 1.58707 -0.436887 -7.946127 7.613033 1.734605 -4.465855 5.586896 8.544004 -172.11976 -50.986564 120.483611 -126.241069 36.365897 104.528178 -20.364223 39.266701 15.558008 16.686064 -38.803116 -0.596299 -0.020486 -1.627702 -0.512707 -156.407509 -39.628733 176.591611 -1.784667 -4.453243 -1.656451 -148.932804 17.404976 -144.989541 -4.270537 -50.234435 9.829447 93.418236 -10.250286 169.499703 -172.92418 -37.92594 91.005707 11.721546 9.351466 1.204095 4.720866 4.588172 -0.909899 140.705531 -45.90802 -116.894352 44.711867 39.168626 -34.996546 3.530929 14.763686 -1.008425 164.43637 -18.630623 -144.677048 5.894419 22.819588 -5.305499 144.913949 10.07414 -177.679376 -9.950926 64.588528 0.15657 160.53811 67.5638 151.113762 82.936255 -52.87218 81.54262 179.906056 75.750953 0.074524 155.47957 0.040741 -90.013863 -79.893472 11.20527 145.809504 -13.031315 -55.622416 -95.479671 -179.982258 75.749546 -0.014133 -152.436408 79.405656 -22.54487 10.146961 41.068584 43.875786 -44.335785 -11.20134 -19.670514
